<svg xmlns="http://www.w3.org/2000/svg" viewBox="0 0 51.97 85.87"><defs><style>.cls-1{fill:#9cc9d9;}.cls-2{fill:#c9ebfa;}.cls-3{fill:#ffe07d;}.cls-4{fill:#ffd064;}.cls-5{fill:#78c2a4;}.cls-6{fill:#b3e59f;}</style></defs><title>Asset 1</title><g id="Layer_2" data-name="Layer 2"><g id="Layer_1-2" data-name="Layer 1"><path class="cls-1" d="M38.91,85.87H13.06a1.65,1.65,0,0,1-1.64-1.64v-3.9H40.55v3.9A1.64,1.64,0,0,1,38.91,85.87Z"/><path class="cls-2" d="M47.24,42,48.52,30.8H3.45L4.73,42Z"/><path class="cls-1" d="M38.53,36.13a2.77,2.77,0,0,1,2.75,3.08L41,42h6.28L48.52,30.8H3.45l.62,5.33Z"/><path class="cls-3" d="M4.55,40.36,9,79.46a1.63,1.63,0,0,0,1.63,1.45H41.32a1.63,1.63,0,0,0,1.62-1.45l4.48-39.1Z"/><path class="cls-4" d="M41.15,40.36l-4.48,39.1A1.64,1.64,0,0,1,35,80.91h6.27a1.63,1.63,0,0,0,1.63-1.45l4.48-39.1Z"/><path class="cls-5" d="M28.71.86V28.1H23.26V.86A.87.87,0,0,1,24.13,0h3.72A.87.87,0,0,1,28.71.86Z"/><path class="cls-6" d="M50.38,31.79H1.59A1.59,1.59,0,0,1,0,30.2V27.58A1.59,1.59,0,0,1,1.59,26H50.38A1.59,1.59,0,0,1,52,27.58V30.2A1.59,1.59,0,0,1,50.38,31.79Z"/><path class="cls-4" d="M33.75,50.25h0a1.3,1.3,0,0,1,0-2.6h0a1.3,1.3,0,0,1,0,2.6Z"/><path class="cls-4" d="M28.72,52.41h0a1.3,1.3,0,0,1,0-2.59h0a1.3,1.3,0,0,1,0,2.6Z"/><path class="cls-4" d="M33.55,62h0a1.31,1.31,0,0,1-1.29-1.31,1.3,1.3,0,0,1,1.3-1.29h0a1.3,1.3,0,0,1,0,2.6Z"/></g></g></svg>