<svg xmlns="http://www.w3.org/2000/svg" viewBox="0 0 55.26 61.79"><defs><style>.cls-1{fill:#b3e59f;}.cls-2{fill:#78c2a4;}.cls-3{fill:#ffe07d;}.cls-4{fill:#ffd064;}</style></defs><title>Asset 5</title><g id="Layer_2" data-name="Layer 2"><g id="Layer_1-2" data-name="Layer 1"><path class="cls-1" d="M18.76,2.29a1.23,1.23,0,0,0-.57,1.57A21.13,21.13,0,0,0,30.58,15.5,20.82,20.82,0,0,0,48.5,14,20.84,20.84,0,0,0,35.73,1.34a21.1,21.1,0,0,0-17,1Z"/><path class="cls-2" d="M43.67,6.36h0A27.2,27.2,0,0,0,31.87,3.77,32.36,32.36,0,0,0,19.43,6.33,21.19,21.19,0,0,0,30.58,15.5,20.82,20.82,0,0,0,48.5,14a19.81,19.81,0,0,0-4.83-7.64Z"/><path class="cls-3" d="M45.61,52.14c9.47-9.46,12.09-22.83,7.33-32.82a2.86,2.86,0,0,1,0-2.41c1.22-2.7,1.05-5.57-.71-7.33s-4.64-1.94-7.34-.71a2.86,2.86,0,0,1-2.41,0c-10-4.75-23.35-2.12-32.8,7.34S-2.44,39,2.32,49a2.86,2.86,0,0,1,0,2.41c-1.22,2.7-1,5.57.71,7.33s4.64,1.94,7.34.71a2.86,2.86,0,0,1,2.41,0c10,4.75,23.35,2.12,32.8-7.34Z"/><path class="cls-4" d="M24.39,51.64A30.83,30.83,0,0,1,0,39.74,24.38,24.38,0,0,0,2.32,49a2.86,2.86,0,0,1,0,2.41c-1.22,2.7-1,5.57.71,7.33s4.64,1.94,7.34.71a2.86,2.86,0,0,1,2.41,0c10,4.75,23.35,2.12,32.8-7.34,7.61-7.6,10.8-17.73,9.28-26.6a30.86,30.86,0,0,1-30.5,26.1Z"/><path class="cls-1" d="M13.53,22.8a1.24,1.24,0,0,0,.7,1.49A22.9,22.9,0,0,0,33,23.81,22.91,22.91,0,0,0,45.26,9.65a1.24,1.24,0,0,0-.7-1.48,23.24,23.24,0,0,0-31,14.63Z"/><path class="cls-2" d="M36.68,6.41a7.73,7.73,0,0,1,.61,1.18c2.37,5.67-2.54,13.13-11,16.65a23.73,23.73,0,0,1-6.06,1.65A23,23,0,0,0,33,23.81,22.91,22.91,0,0,0,45.26,9.65a1.24,1.24,0,0,0-.7-1.48A22.79,22.79,0,0,0,36.68,6.41Z"/><path class="cls-4" d="M45.07,26.48a.94.94,0,0,1,0-1.87,1.08,1.08,0,0,0,1.08-1.07.93.93,0,1,1,1.86,0,2.94,2.94,0,0,1-2.94,2.94Z"/><path class="cls-4" d="M41.39,33.84a.94.94,0,0,1,0-1.87,1.08,1.08,0,0,0,1.08-1.07.93.93,0,1,1,1.86,0,2.94,2.94,0,0,1-2.94,2.94Z"/><path class="cls-4" d="M47.08,35.61a.93.93,0,1,1,0-1.86,1.09,1.09,0,0,0,1.08-1.08.93.93,0,1,1,1.86,0,2.94,2.94,0,0,1-2.94,2.94Z"/><path class="cls-4" d="M41.89,41.08a.93.93,0,1,1,0-1.86A1.09,1.09,0,0,0,43,38.14a.93.93,0,1,1,1.86,0,2.94,2.94,0,0,1-2.94,2.94Z"/><path class="cls-4" d="M34,36.62a.94.94,0,0,1,0-1.87A1.08,1.08,0,0,0,35,33.67a.94.94,0,0,1,1.87,0A3,3,0,0,1,34,36.62Z"/><path class="cls-2" d="M44.56,8.17,44.13,8c-3.84.81-12.3,3.06-19.31,8.07a1,1,0,0,0-.23,1.34.93.93,0,0,0,.74.37,1,1,0,0,0,.55-.17C33,12.47,42,10.31,45.25,9.67v0A1.24,1.24,0,0,0,44.56,8.17Z"/></g></g></svg>