<svg xmlns="http://www.w3.org/2000/svg" viewBox="0 0 433.37 90.56">
	<defs>
		<style>.cls-1{fill:#78c2a4;}.cls-2{fill:#b3e59f;}.cls-3{fill:#ffe07d;}.cls-4{fill:#ffd064;}.cls-5{fill:#9cc9d9;}.cls-6{fill:#c9ebfa;}.cls-7{fill:#455a64;}</style>
	</defs>
	<title>Asset 4</title>
	<g id="Layer_2" data-name="Layer 2">
		<g id="Layer_1-2" data-name="Layer 1">
			<path class="cls-1" d="M431.8,38.48a1.57,1.57,0,0,1,1.57,1.58v29a1.57,1.57,0,0,1-1.57,1.58h-64a1.58,1.58,0,0,1-1.58-1.58v-29a1.58,1.58,0,0,1,1.58-1.58Z" />
			<path class="cls-2" d="M425.89,42.8A3.16,3.16,0,0,0,429.06,46V63.15a3.16,3.16,0,0,0-3.17,3.16H373.68a3.16,3.16,0,0,0-3.16-3.16V46a3.16,3.16,0,0,0,3.16-3.16Z" />
			<circle class="cls-1" cx="399.8" cy="53.87" r="8.42" />
			<path class="cls-2" d="M18.76,25.38a1.22,1.22,0,0,0-.57,1.56A21.11,21.11,0,0,0,30.58,38.59a20.86,20.86,0,0,0,17.92-1.5A20.84,20.84,0,0,0,35.73,24.42a21,21,0,0,0-17,1Z" />
			<path class="cls-1" d="M43.67,29.44h0a27.2,27.2,0,0,0-11.77-2.58,32.54,32.54,0,0,0-12.44,2.56,21.2,21.2,0,0,0,11.15,9.18,20.86,20.86,0,0,0,17.92-1.5,19.81,19.81,0,0,0-4.83-7.65Z" />
			<path class="cls-3" d="M45.61,75.23c9.47-9.46,12.09-22.83,7.33-32.82a2.86,2.86,0,0,1,0-2.41c1.22-2.7,1.05-5.58-.71-7.34s-4.64-1.93-7.34-.7a2.86,2.86,0,0,1-2.41,0c-10-4.75-23.35-2.12-32.8,7.34S-2.44,62.1,2.32,72.09a2.86,2.86,0,0,1,0,2.41c-1.22,2.7-1,5.57.71,7.33s4.64,1.94,7.34.71a2.86,2.86,0,0,1,2.41,0c10,4.75,23.35,2.12,32.8-7.34Z" />
			<path class="cls-4" d="M24.39,74.73A30.81,30.81,0,0,1,0,62.82a24.43,24.43,0,0,0,2.29,9.27,2.86,2.86,0,0,1,0,2.41c-1.22,2.7-1,5.57.71,7.33s4.64,1.94,7.34.71a2.86,2.86,0,0,1,2.41,0c10,4.75,23.35,2.12,32.8-7.34,7.61-7.6,10.8-17.73,9.28-26.6a30.87,30.87,0,0,1-30.5,26.1Z" />
			<path class="cls-2" d="M13.53,45.89a1.22,1.22,0,0,0,.7,1.48A22.82,22.82,0,0,0,33,46.89,22.88,22.88,0,0,0,45.26,32.74a1.24,1.24,0,0,0-.7-1.48,23.24,23.24,0,0,0-31,14.63Z" />
			<path class="cls-1" d="M36.68,29.5a8.11,8.11,0,0,1,.61,1.17c2.37,5.68-2.54,13.14-11,16.66A23.73,23.73,0,0,1,20.25,49,23,23,0,0,0,33,46.89,22.88,22.88,0,0,0,45.26,32.74a1.24,1.24,0,0,0-.7-1.48A22.56,22.56,0,0,0,36.68,29.5Z" />
			<path class="cls-4" d="M45.07,49.56a.93.93,0,0,1,0-1.86,1.08,1.08,0,0,0,1.08-1.08.93.93,0,0,1,1.86,0,2.94,2.94,0,0,1-2.94,2.94Z" />
			<path class="cls-4" d="M41.39,56.92a.93.93,0,1,1,0-1.86A1.08,1.08,0,0,0,42.47,54a.93.93,0,0,1,1.86,0,2.94,2.94,0,0,1-2.94,2.94Z" />
			<path class="cls-4" d="M47.08,58.7a.94.94,0,0,1,0-1.87,1.08,1.08,0,0,0,1.08-1.07.93.93,0,1,1,1.86,0,2.94,2.94,0,0,1-2.94,2.94Z" />
			<path class="cls-4" d="M41.89,64.17a.94.94,0,0,1,0-1.87A1.08,1.08,0,0,0,43,61.22a.93.93,0,1,1,1.86,0,3,3,0,0,1-2.94,3Z" />
			<path class="cls-4" d="M34,59.7a.93.93,0,0,1,0-1.86A1.08,1.08,0,0,0,35,56.76a.94.94,0,0,1,1.87,0A3,3,0,0,1,34,59.7Z" />
			<path class="cls-1" d="M44.56,31.26l-.43-.18c-3.84.81-12.3,3.05-19.31,8.07a1,1,0,0,0-.23,1.33.91.91,0,0,0,.74.38,1,1,0,0,0,.55-.18C33,35.56,42,33.4,45.25,32.76v0A1.24,1.24,0,0,0,44.56,31.26Z" />
			<path class="cls-5" d="M286.54,90.56H260.68A1.64,1.64,0,0,1,259,88.92V85h29.13v3.9A1.63,1.63,0,0,1,286.54,90.56Z" />
			<path class="cls-6" d="M294.86,46.66l1.28-11.17H251.08l1.28,11.17Z" />
			<path class="cls-5" d="M286.16,40.82a2.76,2.76,0,0,1,2.74,3.08l-.31,2.76h6.27l1.28-11.17H251.08l.61,5.33Z" />
			<path class="cls-3" d="M252.17,45.06l4.48,39.09a1.64,1.64,0,0,0,1.63,1.45h30.66a1.64,1.64,0,0,0,1.63-1.45l4.48-39.09Z" />
			<path class="cls-4" d="M288.77,45.06l-4.48,39.09a1.63,1.63,0,0,1-1.63,1.45h6.28a1.64,1.64,0,0,0,1.63-1.45L295,45.06Z" />
			<path class="cls-1" d="M276.33,5.56V32.8h-5.45V5.56a.87.87,0,0,1,.87-.87h3.72A.86.86,0,0,1,276.33,5.56Z" />
			<path class="cls-2" d="M298,36.49H249.22a1.6,1.6,0,0,1-1.6-1.6V32.27a1.6,1.6,0,0,1,1.6-1.59H298a1.6,1.6,0,0,1,1.6,1.59v2.62A1.6,1.6,0,0,1,298,36.49Z" />
			<path class="cls-4" d="M281.38,54.94h0a1.3,1.3,0,1,1,0-2.59h0a1.3,1.3,0,0,1,0,2.59Z" />
			<path class="cls-4" d="M276.34,57.1h0a1.3,1.3,0,0,1,0-2.59h0a1.3,1.3,0,1,1,0,2.59Z" />
			<path class="cls-4" d="M281.18,66.71h0a1.3,1.3,0,1,1,0-2.59h0a1.3,1.3,0,0,1,0,2.59Z" />
			<path class="cls-2" d="M181.89,14.44h7.45a1.22,1.22,0,0,1,.89,2L185,22.06l-3.9,4.11Z" />
			<path class="cls-2" d="M133.82,14.44h13.31v7.17H133.82A1.79,1.79,0,0,0,132,23.4V33.73a7.19,7.19,0,0,0,6.17,7.1,6.77,6.77,0,0,0,1,.07h9.63v7.18H138.72a14.36,14.36,0,0,1-13.86-14.34V23.4A9,9,0,0,1,133.82,14.44Z" />
			<path class="cls-6" d="M147.78,57a5.39,5.39,0,0,0-5.35,4.79l-3.05,27.5h43.05l-3.06-27.5A5.38,5.38,0,0,0,174,57l-1.84-1.79H150.05L147.78,57Z" />
			<path class="cls-5" d="M142.71,60.57A5.38,5.38,0,0,1,147.78,57H174a5.37,5.37,0,0,1,5.35,4.79l3.06,27.5h-9.37L170.4,65.36a5.37,5.37,0,0,0-5.35-4.79Z" />
			<path class="cls-5" d="M152.83,3.49A3.49,3.49,0,0,1,156.32,0h9.17A3.48,3.48,0,0,1,169,3.49V8.07H152.83Z" />
			<path class="cls-1" d="M185.51,14.44,185,22.06l-3.9,4.11-.65-1.92.49-8.19,1-1.62Z" />
			<path class="cls-1" d="M148.84,40.9v7.18H138.72l-.52-7.24a6.77,6.77,0,0,0,1,.07Z" />
			<path class="cls-1" d="M147.13,14.44v7.17H136.81l-.52-7.17Z" />
			<path class="cls-6" d="M140.59,13.19l-.7,1.18,1.17,16.27.45,3.94h38.78l.45-3.94,1.17-16.2-1.65-1.25Z" />
			<path class="cls-5" d="M171.61,32.94l-.12,1.64h9l.28-3.94,1.17-16.2-1.65-1.25H173l-.09,1.25-1.17,16.2Z" />
			<path class="cls-2" d="M139.79,13a5.38,5.38,0,0,1,5.37-5.77h31.48A5.38,5.38,0,0,1,182,13l-.1,1.41H140l-.07-.07-.1-1.34Z" />
			<path class="cls-1" d="M173,13a5.38,5.38,0,0,0-5.37-5.77h9A5.38,5.38,0,0,1,182,13l-.1,1.41h-9L173,13Z" />
			<path class="cls-3" d="M141.06,30.64c19.84-5.14,26.56,7.18,39.68,0L179.2,52a5.38,5.38,0,0,1-5.37,5H148a5.38,5.38,0,0,1-5.37-5l-1.54-21.35Z" />
			<path class="cls-4" d="M170.23,52l1.38-19.05a17.05,17.05,0,0,0,9.13-2.3L179.2,52a5.38,5.38,0,0,1-5.37,5h-9A5.38,5.38,0,0,0,170.23,52Z" />
			<circle class="cls-1" cx="160.9" cy="76.72" r="5.38" />
			<path class="cls-1" d="M159.56,67.21V64.52a1.35,1.35,0,1,1,2.69,0v2.69a1.35,1.35,0,0,1-2.69,0Z" />
			<path class="cls-1" d="M167.62,71.34a1.33,1.33,0,0,1-1-.4,1.35,1.35,0,0,1,0-1.9l1.91-1.9a1.33,1.33,0,0,1,1.9,0,1.35,1.35,0,0,1,0,1.9l-1.9,1.9a1.34,1.34,0,0,1-1,.4Z" />
			<path class="cls-1" d="M169.06,76.72a1.35,1.35,0,0,1,1.35-1.35h2.69a1.35,1.35,0,0,1,0,2.69h-2.69A1.35,1.35,0,0,1,169.06,76.72Z" />
			<path class="cls-1" d="M147.36,76.72a1.34,1.34,0,0,1,1.34-1.35h2.69a1.35,1.35,0,1,1,0,2.69H148.7A1.34,1.34,0,0,1,147.36,76.72Z" />
			<path class="cls-1" d="M153.23,70.94,151.32,69a1.35,1.35,0,1,1,1.91-1.9l1.9,1.9a1.33,1.33,0,0,1,0,1.9,1.32,1.32,0,0,1-.95.4A1.3,1.3,0,0,1,153.23,70.94Z" />
			<path class="cls-2" d="M159.56,74v-2.7a1.35,1.35,0,0,1,2.69,0V74a1.35,1.35,0,0,1-2.69,0Z" />
			<path class="cls-7" d="M237,54.49a.84.84,0,0,0,0-1.19L221.15,37.42a4.38,4.38,0,0,0-6.2,6.2l6.1,6.1H201.33a4.18,4.18,0,1,0,0,8.35h19.72l-6.1,6.1a4.38,4.38,0,0,0,6.2,6.2Z" />
			<path class="cls-7" d="M111,54.57a.85.85,0,0,0,0-1.18L95.09,37.51a4.38,4.38,0,0,0-6.2,6.2L95,49.8H75.27a4.18,4.18,0,1,0,0,8.36H95l-6.09,6.1a4.38,4.38,0,0,0,6.2,6.19Z" />
			<path class="cls-7" d="M349.82,55.15a.84.84,0,0,0,0-1.19L333.94,38.08a4.38,4.38,0,0,0-6.2,6.2l6.1,6.1H314.12a4.18,4.18,0,1,0,0,8.35h19.72l-6.1,6.1a4.38,4.38,0,0,0,6.2,6.2Z" />
		</g>
	</g>
</svg>